<?xml version="1.0" encoding="UTF-8" standalone="no"?>
<svg
   width="800"
   height="600"
   version="1.1"
   id="svg50"
   sodipodi:docname="ANS.svg"
   inkscape:version="1.1.2 (b8e25be833, 2022-02-05)"
   xmlns:inkscape="http://www.inkscape.org/namespaces/inkscape"
   xmlns:sodipodi="http://sodipodi.sourceforge.net/DTD/sodipodi-0.dtd"
   xmlns="http://www.w3.org/2000/svg"
   xmlns:svg="http://www.w3.org/2000/svg">
  <defs
     id="defs54" />
  <sodipodi:namedview
     id="namedview52"
     pagecolor="#ffffff"
     bordercolor="#666666"
     borderopacity="1.0"
     inkscape:pageshadow="2"
     inkscape:pageopacity="0.0"
     inkscape:pagecheckerboard="0"
     showgrid="false"
     inkscape:zoom="1"
     inkscape:cx="132.5"
     inkscape:cy="322"
     inkscape:window-width="1920"
     inkscape:window-height="1001"
     inkscape:window-x="-9"
     inkscape:window-y="-9"
     inkscape:window-maximized="1"
     inkscape:current-layer="svg50" />
  <ellipse
     stroke="black"
     stroke-width="1"
     fill="none"
     cx="154.5"
     cy="105.5"
     id="ellipse2"
     ry="30"
     rx="30"
     style="fill:#ff0000" />
  <text
     x="150.5"
     y="111.5"
     font-family="Times New Roman"
     font-size="20"
     id="text4">a</text>
  <ellipse
     stroke="black"
     stroke-width="1"
     fill="none"
     cx="253.5"
     cy="207.5"
     rx="30"
     ry="30"
     id="ellipse6" />
  <text
     x="245.5"
     y="213.5"
     font-family="Times New Roman"
     font-size="20"
     id="text8">x₁</text>
  <ellipse
     stroke="black"
     stroke-width="1"
     fill="none"
     cx="253.5"
     cy="303.5"
     rx="30"
     ry="30"
     id="ellipse10" />
  <text
     x="245.5"
     y="309.5"
     font-family="Times New Roman"
     font-size="20"
     id="text12">x₂</text>
  <ellipse
     stroke="black"
     stroke-width="1"
     fill="none"
     cx="253.5"
     cy="394.5"
     rx="30"
     ry="30"
     id="ellipse14" />
  <text
     x="245.5"
     y="400.5"
     font-family="Times New Roman"
     font-size="20"
     id="text16">x₃</text>
  <ellipse
     stroke="black"
     stroke-width="1"
     fill="none"
     cx="154.5"
     cy="468.5"
     rx="30"
     ry="30"
     id="ellipse18" />
  <text
     x="149.5"
     y="474.5"
     font-family="Times New Roman"
     font-size="20"
     id="text20">b</text>
  <ellipse
     stroke="black"
     stroke-width="1"
     fill="none"
     cx="58.5"
     cy="303.5"
     rx="30"
     ry="30"
     id="ellipse22" />
  <text
     x="54.5"
     y="309.5"
     font-family="Times New Roman"
     font-size="20"
     id="text24">z</text>
  <polygon
     stroke="black"
     stroke-width="1"
     points="175.394,127.027 232.606,185.973"
     id="polygon26" />
  <polygon
     fill="black"
     stroke-width="1"
     points="232.606,185.973 230.622,176.75 223.446,183.714"
     id="polygon28" />
  <polygon
     stroke="black"
     stroke-width="1"
     points="253.5,237.5 253.5,273.5"
     id="polygon30" />
  <polygon
     fill="black"
     stroke-width="1"
     points="253.5,273.5 258.5,265.5 248.5,265.5"
     id="polygon32" />
  <polygon
     stroke="black"
     stroke-width="1"
     points="253.5,333.5 253.5,364.5"
     id="polygon34" />
  <polygon
     fill="black"
     stroke-width="1"
     points="253.5,364.5 258.5,356.5 248.5,356.5"
     id="polygon36" />
  <polygon
     stroke="black"
     stroke-width="1"
     points="229.471,412.461 178.529,450.539"
     id="polygon38" />
  <polygon
     fill="black"
     stroke-width="1"
     points="178.529,450.539 187.93,449.754 181.943,441.744"
     id="polygon40" />
  <polygon
     stroke="black"
     stroke-width="1"
     points="71.588,276.506 141.412,132.494"
     id="polygon42" />
  <polygon
     fill="black"
     stroke-width="1"
     points="141.412,132.494 133.423,137.512 142.421,141.874"
     id="polygon44" />
  <polygon
     stroke="black"
     stroke-width="1"
     points="73.587,329.43 139.413,442.57"
     id="polygon46" />
  <polygon
     fill="black"
     stroke-width="1"
     points="139.413,442.57 139.712,433.14 131.068,438.169"
     id="polygon48" />
  <path
     style="fill:#ff0000;stroke-width:0.185644"
     d="m 152.32054,497.79833 c -11.84269,-0.91867 -21.96121,-8.82207 -25.69783,-20.07215 -3.45448,-10.40061 -0.89415,-21.63532 6.7287,-29.52544 4.41582,-4.57066 9.30502,-7.23912 15.81319,-8.63064 2.42166,-0.51777 8.50401,-0.46922 11.07323,0.0884 11.88924,2.5804 20.73377,11.48899 23.12679,23.29427 0.59846,2.95235 0.59312,8.41607 -0.011,11.22712 -2.45857,11.44074 -10.698,20.04297 -21.90314,22.8676 -2.74227,0.69128 -6.21554,0.97692 -9.12996,0.75084 z m 3.59311,-23.27015 c 0.96203,-0.40197 1.99634,-1.42259 2.46791,-2.43524 0.63809,-1.37024 0.6186,-3.55438 -0.0436,-4.88319 -1.06322,-2.13361 -3.28128,-2.63258 -4.99884,-1.12454 l -0.64732,0.56835 v -3.08235 c 0,-2.63663 -0.0409,-3.08235 -0.2827,-3.08235 -0.15549,0 -0.91006,0.26334 -1.67684,0.58521 -1.34593,0.56497 -1.74546,1.04536 -0.7845,0.94329 0.25617,-0.0272 0.55944,0.0634 0.67392,0.20133 0.1412,0.17014 0.22397,2.06687 0.25733,5.89724 l 0.0492,5.64645 1.00791,0.51052 c 1.1535,0.58425 2.91898,0.69756 3.97752,0.25528 z"
     id="path1240" />
  <path
     style="fill:#b3b3b3;stroke-width:0.185644"
     d="m 153.62005,473.62932 -0.8354,-0.42387 v -2.77726 -2.77726 l 0.6308,-0.42509 c 1.7814,-1.20049 3.55092,0.32236 3.54211,3.04832 -0.005,1.39051 -0.39463,2.47626 -1.13171,3.14958 -0.69026,0.63054 -1.26304,0.68393 -2.2058,0.20558 z"
     id="path1279" />
  <path
     style="fill:#b3b3b3;stroke-width:0.185644"
     d="M 55.524039,332.74754 C 42.42445,331.36667 31.741896,321.3777 29.535954,308.44678 c -1.285046,-7.53276 0.338649,-14.92513 4.731694,-21.54248 1.644321,-2.47689 5.222845,-6.01864 7.835217,-7.75471 5.411434,-3.5962 11.245303,-5.25117 17.586488,-4.98898 16.183565,0.66913 28.842786,14.37391 28.155086,30.48048 -0.461983,10.82012 -6.641809,20.32745 -16.387023,25.21056 -4.822884,2.41664 -10.570296,3.46123 -15.933377,2.89589 z m 7.381658,-24.16152 c 0.183152,-1.52484 0.149686,-1.99567 -0.141854,-1.99567 -0.160173,0 -0.309865,0.28243 -0.384811,0.72604 -0.206375,1.22152 -0.566403,1.39758 -3.016892,1.47537 -2.095134,0.0665 -2.135788,0.0601 -1.884165,-0.29507 0.141445,-0.19968 1.489383,-1.98813 2.995416,-3.97433 1.506034,-1.98619 2.738243,-3.71184 2.738243,-3.83476 0,-0.16713 -0.983111,-0.22349 -3.898515,-0.22349 h -3.898515 v 1.2995 c 0,0.98636 0.06225,1.29951 0.25834,1.29951 0.142088,0 0.315675,-0.22973 0.38575,-0.51052 0.256662,-1.02841 0.545393,-1.16027 2.540624,-1.16027 1.005213,0 1.827662,0.0439 1.827662,0.0975 0,0.0536 -1.253094,1.76409 -2.784653,3.80102 -1.53156,2.03694 -2.784654,3.83094 -2.784654,3.98666 0,0.24493 0.535272,0.28314 3.965479,0.28314 h 3.965478 z"
     id="path1355" />
  <path
     style="fill:#b3b3b3;stroke-width:0.185644"
     d="m 250.52599,332.75917 c -9.01354,-1.10695 -16.5801,-5.68997 -21.45201,-12.99334 -2.07531,-3.11105 -3.51653,-6.53537 -4.38765,-10.42499 -0.37738,-1.68506 -0.42796,-2.39454 -0.42104,-5.90643 0.007,-3.40088 0.0676,-4.25934 0.41186,-5.80294 2.67339,-11.9884 11.79043,-20.86542 23.71394,-23.08963 2.58097,-0.48145 7.62943,-0.48145 10.2104,0 4.09894,0.76462 8.55905,2.63666 11.92253,5.00425 2.12866,1.49838 5.39264,4.77772 6.96201,6.99475 2.24589,3.17277 3.90939,6.98955 4.83373,11.09063 0.35398,1.57055 0.40798,2.35504 0.4058,5.89576 -0.002,3.81702 -0.0366,4.22987 -0.52335,6.31188 -2.75552,11.78609 -11.98756,20.55809 -23.8306,22.64311 -2.04805,0.36057 -6.02236,0.50086 -7.84562,0.27695 z m 10.35875,-23.44376 c 0.12261,-0.33909 0.22293,-0.71502 0.22293,-0.8354 0,-0.3094 -0.46747,-0.27189 -0.74257,0.0596 -0.16236,0.19564 -0.59262,0.27847 -1.44643,0.27847 h -1.21533 l 1.31152,-1.35257 c 1.98412,-2.04624 2.19029,-3.20943 0.75746,-4.27347 -0.99666,-0.74013 -2.95141,-0.40757 -3.54882,0.60376 -0.62024,1.04998 -0.25238,1.51229 0.53085,0.66716 0.93319,-1.00692 2.33733,-0.64686 2.46355,0.63172 0.0806,0.81612 -0.5339,1.70183 -2.27409,3.27791 -0.77299,0.7001 -1.40544,1.33735 -1.40544,1.41613 0,0.0788 1.15277,0.14322 2.56171,0.14322 h 2.56172 z m -12.02954,-0.0332 c 0,-0.15316 -0.11508,-0.27847 -0.25574,-0.27847 -0.14065,0 -0.34942,-0.11288 -0.46392,-0.25085 -0.1615,-0.1946 0.007,-0.54851 0.75087,-1.57797 0.52749,-0.72992 1.00776,-1.32604 1.06727,-1.32473 0.18465,0.004 1.73257,2.43211 1.75643,2.75509 0.0136,0.18444 -0.14293,0.329 -0.39513,0.36487 -0.22974,0.0327 -0.4177,0.17891 -0.4177,0.32497 0,0.21556 0.41943,0.26555 2.22772,0.26555 1.85644,0 2.22772,-0.0464 2.22772,-0.27846 0,-0.15316 -0.15145,-0.27847 -0.33655,-0.27847 -0.45561,0 -1.09487,-0.70073 -2.62249,-2.87469 l -1.28833,-1.83341 0.39245,-0.56983 c 0.8812,-1.27951 2.05426,-2.52602 2.47702,-2.63213 0.24733,-0.0621 0.44969,-0.22911 0.44969,-0.3712 0,-0.20043 -0.35373,-0.25834 -1.57798,-0.25834 -1.27887,0 -1.57797,0.0528 -1.57797,0.27846 0,0.15316 0.0862,0.27847 0.19147,0.27847 0.44934,0 0.35085,0.59328 -0.2455,1.47881 l -0.63985,0.95012 -0.60095,-0.9365 c -0.6006,-0.93596 -0.63913,-1.49243 -0.10332,-1.49243 0.15636,0 0.28429,-0.12531 0.28429,-0.27847 0,-0.23205 -0.37128,-0.27846 -2.22772,-0.27846 -1.85644,0 -2.22772,0.0464 -2.22772,0.27846 0,0.15316 0.15569,0.27847 0.34597,0.27847 0.46202,0 1.12939,0.69343 2.3665,2.45892 l 1.02642,1.4648 -1.05965,1.42613 c -1.29934,1.74875 -2.11773,2.63282 -2.43719,2.63282 -0.13313,0 -0.24205,0.12531 -0.24205,0.27847 0,0.22568 0.29909,0.27846 1.57797,0.27846 1.27888,0 1.57797,-0.0528 1.57797,-0.27846 z"
     id="path1394" />
  <path
     style="fill:#b3b3b3;stroke-width:0.185644"
     d="m 250.28001,423.72103 c -9.92387,-1.15335 -18.54867,-7.16944 -23.02465,-16.06045 -1.13852,-2.26156 -1.83958,-4.21484 -2.46587,-6.87037 -0.48937,-2.07505 -0.52202,-2.4689 -0.52202,-6.29764 0,-3.82834 0.0328,-4.22369 0.52307,-6.31188 1.7793,-7.5779 6.11263,-13.88927 12.45005,-18.13313 9.76505,-6.53917 22.64369,-6.56853 32.39945,-0.0738 6.51997,4.34052 10.93164,10.81805 12.67364,18.60837 0.35304,1.5788 0.40839,2.37988 0.40839,5.91049 0,3.52152 -0.0558,4.33373 -0.40531,5.89577 -1.76454,7.88683 -6.14203,14.31005 -12.70434,18.64141 -5.69234,3.75716 -12.71235,5.46067 -19.33241,4.69128 z m 9.41189,-23.25739 c 1.18556,-0.90427 1.32736,-2.55044 0.28602,-3.32034 -0.53597,-0.39626 -0.53752,-0.40285 -0.18326,-0.7826 0.1965,-0.21064 0.41376,-0.61061 0.48281,-0.88882 0.1015,-0.40901 0.018,-0.61337 -0.43607,-1.06745 -0.49314,-0.49314 -0.69008,-0.56161 -1.61549,-0.56161 -0.95101,0 -1.11549,0.0616 -1.68507,0.63119 -0.34715,0.34715 -0.63119,0.72308 -0.63119,0.8354 0,0.32399 0.54848,0.2378 1.06321,-0.16708 0.56672,-0.44578 1.21711,-0.47782 1.61536,-0.0796 0.62181,0.6218 0.0959,1.7917 -0.92009,2.04669 -0.68242,0.17128 -0.55901,0.37697 0.36592,0.60987 1.36667,0.34413 1.81493,1.42658 0.93363,2.25451 -0.43845,0.41191 -0.52378,0.42619 -1.30217,0.21801 -1.21399,-0.3247 -1.75586,-0.29033 -1.75586,0.11137 0,0.65866 0.39368,0.81875 1.80166,0.73267 1.0831,-0.0662 1.45987,-0.17508 1.98059,-0.57225 z m -10.8367,-0.21611 c 0,-0.15316 -0.15814,-0.27847 -0.35143,-0.27847 -0.666,0 -0.54847,-0.52433 0.41063,-1.83195 0.52901,-0.72123 1.00361,-1.3131 1.05466,-1.31527 0.21212,-0.009 1.87965,2.77382 1.76922,2.9525 -0.0662,0.1071 -0.28249,0.19472 -0.48067,0.19472 -0.19818,0 -0.36033,0.12531 -0.36033,0.27847 0,0.23205 0.37128,0.27846 2.22772,0.27846 1.76643,0 2.22772,-0.0529 2.22772,-0.25526 0,-0.14039 -0.24175,-0.30361 -0.53722,-0.3627 -0.42707,-0.0854 -0.83889,-0.53742 -2.00853,-2.20452 -0.80921,-1.15339 -1.52446,-2.18753 -1.58944,-2.29808 -0.18137,-0.30858 2.19307,-3.20482 2.73995,-3.34208 0.25687,-0.0645 0.46703,-0.23347 0.46703,-0.37555 0,-0.20043 -0.35373,-0.25834 -1.57798,-0.25834 -1.22501,0 -1.57797,0.0578 -1.57797,0.2586 0,0.14223 0.12531,0.30669 0.27847,0.36546 0.42463,0.16294 0.3388,0.52522 -0.3559,1.50233 l -0.63437,0.89225 -0.56879,-0.90598 c -0.66802,-1.06404 -0.70967,-1.36985 -0.20455,-1.50194 0.2042,-0.0534 0.37128,-0.21266 0.37128,-0.35391 0,-0.20439 -0.45476,-0.25681 -2.22772,-0.25681 -1.85644,0 -2.22772,0.0464 -2.22772,0.27846 0,0.15316 0.1189,0.27847 0.26422,0.27847 0.46574,0 1.33848,0.88669 2.40022,2.43862 0.76286,1.11505 0.99099,1.58976 0.87005,1.81048 -0.41383,0.75527 -2.74323,3.47442 -3.11685,3.63836 -0.2297,0.10079 -0.41764,0.28875 -0.41764,0.4177 0,0.17044 0.43078,0.23444 1.57797,0.23444 1.27888,0 1.57797,-0.0528 1.57797,-0.27846 z"
     id="path1433" />
  <path
     style="fill:#ff0000;stroke-width:0.185644"
     d="m 250.8755,236.79012 c -11.47239,-1.0965 -21.34176,-8.81391 -25.10766,-19.63307 -1.26595,-3.63699 -1.51138,-5.22142 -1.50255,-9.70037 0.009,-4.39088 0.22645,-5.85534 1.38515,-9.31383 3.1611,-9.43525 11.13715,-16.77548 20.82469,-19.16463 16.58693,-4.09069 33.12121,6.81047 36.01443,23.74455 0.53334,3.12168 0.40554,8.16578 -0.27987,11.04579 -2.18352,9.17485 -7.81369,16.23496 -16.13776,20.2364 -4.67463,2.24713 -10.21041,3.26171 -15.19643,2.78516 z m 9.30396,-23.11438 c 0,-0.17326 -0.17533,-0.27846 -0.46411,-0.27846 h -0.46411 v -3.34159 c 0,-2.05095 -0.07,-3.34158 -0.18133,-3.34158 -0.46059,0 -2.23155,0.86301 -2.23178,1.08758 -1.8e-4,0.17571 0.13921,0.21717 0.45969,0.13673 0.61753,-0.15499 0.68149,0.16103 0.61475,3.03741 -0.0528,2.27572 -0.0608,2.31415 -0.504,2.41849 -0.24769,0.0583 -0.48439,0.20814 -0.52599,0.33295 -0.0559,0.16772 0.36441,0.22694 1.61061,0.22694 1.37514,0 1.68627,-0.0514 1.68627,-0.27847 z m -11.32426,-0.37128 c 0,-0.15316 -0.11508,-0.27847 -0.25574,-0.27847 -0.14065,0 -0.34942,-0.11289 -0.46392,-0.25086 -0.1615,-0.19459 0.007,-0.5485 0.75087,-1.57797 0.52749,-0.72991 1.01141,-1.32711 1.07537,-1.32711 0.14632,0 1.86372,2.58101 1.86372,2.80092 0,0.0893 -0.20885,0.21472 -0.46411,0.27879 -0.25526,0.0641 -0.46411,0.23273 -0.46411,0.37482 0,0.20634 0.44842,0.25834 2.22772,0.25834 1.85644,0 2.22772,-0.0464 2.22772,-0.27846 0,-0.15316 -0.15069,-0.27847 -0.33487,-0.27847 -0.45281,0 -1.22862,-0.86051 -2.69823,-2.99277 l -1.23102,-1.78609 0.91555,-1.20941 c 0.96655,-1.27679 1.74624,-1.9944 2.16693,-1.9944 0.13938,0 0.25343,-0.12531 0.25343,-0.27847 0,-0.22568 -0.2991,-0.27846 -1.57798,-0.27846 -1.27887,0 -1.57797,0.0528 -1.57797,0.27846 0,0.15316 0.0862,0.27847 0.19147,0.27847 0.43915,0 0.36038,0.59024 -0.18444,1.38211 -0.31999,0.46509 -0.64043,0.84546 -0.71211,0.84528 -0.20423,-5.2e-4 -1.15135,-1.58157 -1.15135,-1.92198 0,-0.18165 0.15046,-0.30541 0.37129,-0.30541 0.20627,0 0.37128,-0.12377 0.37128,-0.27847 0,-0.23205 -0.37128,-0.27846 -2.22772,-0.27846 -1.76643,0 -2.22772,0.0529 -2.22772,0.25526 0,0.14039 0.24446,0.30415 0.54325,0.36391 0.42655,0.0853 0.83007,0.51037 1.87835,1.97864 l 1.33509,1.86998 -1.36329,1.79011 c -0.74981,0.98455 -1.59453,1.9216 -1.87717,2.08231 -0.95023,0.54033 -0.64701,0.75632 1.06174,0.75632 1.27888,0 1.57797,-0.0528 1.57797,-0.27846 z"
     id="path1472" />
  <path
     style="fill:#ff0000;stroke-width:0.185644"
     d="m 153.57364,473.47127 -0.69616,-0.36752 v -2.67475 -2.67476 l 0.53917,-0.38392 c 1.09364,-0.77874 2.5486,-0.29416 3.10337,1.0336 0.39114,0.93614 0.33115,3.09098 -0.11014,3.95598 -0.43224,0.84726 -1.19758,1.49858 -1.74742,1.48709 -0.21596,-0.005 -0.70593,-0.17358 -1.08882,-0.37572 z"
     id="path1548" />
</svg>
